<svg xmlns="http://www.w3.org/2000/svg" width="24" height="24" viewBox="0 0 24.000001 24.000001"><path d="M16.254 2.012c-1.182.106-2.841 4.104-3.965 7.02 0 0-.625.024-1.476.138L3.788 2.146 2.146 3.79l18.065 18.065 1.643-1.643-5.268-5.268a17.82 17.82 0 0 0-.36-3.492c.426-.237.924-.65 1.268-.877 0 0 .13.77 1.297 3.184 1.47 2.253 2.334.947 2.139.58-1.004-1.89-1.17-3.762-2.338-4.748-.346-.292-2.012.06-2.012.06.74-2.796 1.233-6.865-.033-7.574a.493.493 0 0 0-.293-.064zm-9.785 8.623c-.88.632-1.5 1.507-1.48 2.738.007.456 1.308-.607 2.777-1.441l-1.297-1.297zm3.117 3.117c-3.069 3.663-7.79 8.045-5.217 8.244 2.022.157 5.45-2.253 8.164-5.297l-2.947-2.947zm3.902 3.902c-.158 1.723-.277 3.097.424 2.819a3.512 3.512 0 0 0 1.387-1.008l-1.81-1.81z" fill="#fff" fill-rule="evenodd"/></svg>