<svg xmlns="http://www.w3.org/2000/svg" width="24" height="24" viewBox="0 0 24.000001 24.000001"><path d="M16.255 2.011c-1.528.137-3.883 6.85-4.801 9.207-2.091 3.739-10.298 10.528-7.086 10.777 2.313.18 6.464-2.999 9.284-6.643-.08 2.6-.741 5.517.26 5.12 3.76-1.491 2.538-7.961 2.314-9.022.426-.237.925-.65 1.27-.877 0 0 .127.771 1.294 3.185 1.47 2.253 2.335.947 2.14.58-1.003-1.89-1.17-3.762-2.338-4.748-.346-.292-2.012.06-2.012.06.74-2.796 1.234-6.865-.032-7.574a.493.493 0 0 0-.293-.064zm-4.801 9.207l.834-2.186s-7.368.124-7.3 4.342c.013.745 3.468-2.568 5.486-2.308.303-.084.98.152.98.152z" fill="#fff" fill-rule="evenodd"/></svg>