<svg xmlns="http://www.w3.org/2000/svg" viewBox="0 0 24 24"><path d="M20 4l-2.31 2.31A12.906 12.906 0 0 0 12 5C4 5 0 12 0 12s2.114 3.662 6.314 5.686L4 20l1 1 2.723-2.723 1.16-1.16 1.474-1.474 5.286-5.286 1.476-1.476 1.863-1.863L21 5l-1-1zm-8 2a6 6 0 0 1 4.236 1.764l-1.414 1.414A4 4 0 0 0 12 8a4 4 0 0 0-2.22.676c.839.669 1.582 2.81 1.845 3.699l-.16.16c-.498-.485-1.623-1.5-3.063-2.271A4 4 0 0 0 8 12a4 4 0 0 0 1.176 2.824l-1.408 1.408A6 6 0 0 1 6 12a6 6 0 0 1 6-6zm8.174 1.826l-2.436 2.436A6 6 0 0 1 18 12a6 6 0 0 1-6 6 6 6 0 0 1-1.74-.26l-.975.975A13.1 13.1 0 0 0 12 19c8 0 12-7 12-7s-1.276-2.23-3.826-4.174zM16 12l-4 4a4 4 0 0 0 4-4z" fill="#fff" fill-rule="evenodd"/></svg>