<svg xmlns="http://www.w3.org/2000/svg" width="24" height="24" viewBox="0 0 24 24"><path style="line-height:normal;text-indent:0;text-align:start;text-decoration-line:none;text-decoration-style:solid;text-decoration-color:#000;text-transform:none;block-progression:tb;isolation:auto;mix-blend-mode:normal" d="M10.299 1.283l-.592 3.112a7.95 7.95 0 0 0-1.465.607L5.623 3.217 3.217 5.623l1.781 2.615a7.95 7.95 0 0 0-.61 1.471l-3.105.59V13.7l3.112.592a7.95 7.95 0 0 0 .607 1.465l-1.785 2.619 2.406 2.406 2.615-1.781a7.95 7.95 0 0 0 1.471.61l.59 3.105H13.7l.592-3.112a7.95 7.95 0 0 0 1.465-.607l2.619 1.785 2.406-2.406-1.781-2.615a7.95 7.95 0 0 0 .61-1.471l3.105-.59v-3.4l-3.112-.592a7.95 7.95 0 0 0-.607-1.465l1.785-2.619-2.406-2.406-2.615 1.781a7.95 7.95 0 0 0-1.471-.61l-.59-3.105h-3.4zM12 8.018A3.982 3.982 0 0 1 15.982 12 3.982 3.982 0 0 1 12 15.982 3.982 3.982 0 0 1 8.018 12 3.982 3.982 0 0 1 12 8.018z" color="#000" font-weight="400" font-family="sans-serif" white-space="normal" overflow="visible" fill="#fff"/></svg>