<svg xmlns="http://www.w3.org/2000/svg" width="16" height="16" viewBox="0 0 16 16"><path d="M8-.012C3.583-.012-.012 3.583-.012 8S3.583 16.01 8 16.01s8.012-3.593 8.012-8.01S12.417-.012 8-.012zm-.662 1.356v2.953c-.813-.054-1.462-.187-1.967-.37.479-1.398.99-2.252 1.106-2.435a6.6 6.6 0 0 1 .86-.148zm1.324 0c.294.028.58.083.861.148.116.183.627 1.037 1.106 2.436-.505.182-1.154.315-1.967.369zm-4.049.89c-.142.32-.285.679-.427 1.079-.262-.198-.399-.336-.479-.444.283-.236.587-.447.906-.635zm6.774 0c.32.188.623.399.906.635-.08.108-.217.246-.479.443a15.28 15.28 0 0 0-.427-1.078zm-8.598 1.57c.198.227.464.492.844.745.044.029.106.055.152.084a13.82 13.82 0 0 0-.408 2.705H1.344a6.657 6.657 0 0 1 1.445-3.533zm10.422 0a6.657 6.657 0 0 1 1.445 3.534h-2.033a13.844 13.844 0 0 0-.408-2.705c.046-.03.108-.055.152-.084a4.19 4.19 0 0 0 .844-.744zm-8.207 1.39a8.51 8.51 0 0 0 2.334.447v1.697H4.7c.045-.765.147-1.488.303-2.145zm5.992 0c.156.656.258 1.379.303 2.144H8.662V5.64a8.51 8.51 0 0 0 2.334-.448zM1.344 8.66h2.033c.052.98.199 1.889.408 2.705-.046.03-.108.055-.152.084-.38.253-.646.52-.844.746A6.65 6.65 0 0 1 1.344 8.66zm3.357 0h2.637v1.7a8.51 8.51 0 0 0-2.334.447A12.539 12.539 0 0 1 4.7 8.66zm3.961 0H11.3c-.045.766-.147 1.49-.303 2.147a8.51 8.51 0 0 0-2.334-.448zm3.961 0h2.033a6.65 6.65 0 0 1-1.445 3.535 4.176 4.176 0 0 0-.844-.746c-.044-.029-.106-.055-.152-.084.21-.816.356-1.724.408-2.705zm-5.285 3.041v2.955a6.66 6.66 0 0 1-.86-.148c-.114-.18-.627-1.035-1.107-2.436.505-.182 1.154-.317 1.967-.37zm1.324 0c.813.054 1.462.19 1.967.371-.48 1.401-.993 2.255-1.108 2.436a6.66 6.66 0 0 1-.859.148zm-4.476.985c.143.4.285.76.427 1.08a6.681 6.681 0 0 1-.908-.635c.08-.108.217-.246.48-.445zm7.628 0c.264.199.401.337.48.445a6.681 6.681 0 0 1-.907.635c.142-.32.284-.68.427-1.08z" fill="#fff"/></svg>