<svg xmlns="http://www.w3.org/2000/svg" width="24" height="24" viewBox="0 0 24 24"><g fill="#fff" fill-rule="evenodd"><path d="M4.283.076v1.05h5.35l12.798 12.8 1.051-1.05-12.8-12.8h-6.4z"/><path d="M2.142 2.217v1.15h5.25l12.798 12.8 1.15-1.15-12.798-12.8h-6.4zm2.503 3.655a1.535 1.535 0 0 0-.33.119l.291.29a1.535 1.535 0 0 1-.002-.063 1.535 1.535 0 0 1 .041-.346zM6.487 7.71a1.535 1.535 0 0 1-.345.04 1.535 1.535 0 0 1-.07 0l.294.296a1.535 1.535 0 0 0 .121-.333z"/><path d="M0 4.8v6.4L12.8 24l6.4-6.4L6.4 4.8H0zm4 2.464A1.535 1.535 0 0 1 5.536 8.8 1.535 1.535 0 0 1 4 10.334 1.535 1.535 0 0 1 2.464 8.8 1.535 1.535 0 0 1 4 7.264z"/></g></svg>