<svg xmlns="http://www.w3.org/2000/svg" viewBox="0 0 16 16" height="16" width="16"><path d="M1.577.612h3.084v2.943h5.78V5.58H4.66v1.5h5.78v2.027H4.66c-.019.835-.04 1.735.52 2.427.98 1.331 2.8 1.536 4.333 1.408 1.4-.08 2.928-.837 3.302-2.293.173-.812.058-1.652.091-2.477V.612H16c-.004 3.21.008 6.419-.006 9.628-.135 2.225-1.541 4.363-3.643 5.187-1.993.793-4.258.82-6.32.283-1.95-.508-3.598-2.037-4.161-3.985-.297-.843-.31-1.738-.293-2.62H0V7.08h1.577V5.581H0V3.555h1.577V.612z" fill="#fff" fill-rule="evenodd"/></svg>